<?xml version="1.0"?>
<svg xmlns="http://www.w3.org/2000/svg" xmlns:xlink="http://www.w3.org/1999/xlink" xmlns:svgjs="http://svgjs.com/svgjs" version="1.1" width="70" height="70" x="0" y="0" viewBox="0 0 512 512" style="enable-background:new 0 0 512 512" xml:space="preserve" class=""><circle r="256" cx="256" cy="256" fill="#ffffff" shape="circle" transform="matrix(1,0,0,1,0,0)"/><g transform="matrix(0.7,-1.7145055188062944e-16,1.7145055188062944e-16,0.7,76.79999999999993,76.80000000000001)">
<circle xmlns="http://www.w3.org/2000/svg" style="" cx="256" cy="256" r="256" fill="#3a32d0" data-original="#50206c" class=""/>
<path xmlns="http://www.w3.org/2000/svg" style="" d="M511.99,263.131L385.782,136.924c-12.226-15.774-31.339-25.957-52.795-25.957  c-29.584,0-54.722,19.344-63.469,46.041l-22.983-22.983l0.121-0.121l-23.61-23.612l-43.847,43.847l-43.846-43.847l-23.611,23.611  l43.847,43.847l-43.847,43.847l0.029,0.028l-0.121,0.121l48.504,48.504c-27.571,8.221-47.736,33.793-47.736,64  c0,18.583,7.637,35.411,19.928,47.53l-0.175,0.175L262.14,511.924C398.358,508.765,508.267,399.211,511.99,263.131z" fill="#5850ec" data-original="#3d1952" class=""/>
<path xmlns="http://www.w3.org/2000/svg" style="" d="M332.895,244.532c-36.824,0-66.783-29.959-66.783-66.783s29.959-66.783,66.783-66.783  s66.783,29.959,66.783,66.783S369.717,244.532,332.895,244.532z M332.895,144.358c-18.412,0-33.391,14.979-33.391,33.391  s14.979,33.391,33.391,33.391s33.391-14.979,33.391-33.391S351.305,144.358,332.895,144.358z" fill="#ffffff" data-original="#ffffff" class=""/>
<path xmlns="http://www.w3.org/2000/svg" style="" d="M332.895,110.967v33.391c18.412,0,33.391,14.979,33.391,33.391s-14.979,33.391-33.391,33.391v33.391  c36.824,0,66.783-29.959,66.783-66.783S369.717,110.967,332.895,110.967z" fill="#e0e0e2" data-original="#e0e0e2" class=""/>
<polygon xmlns="http://www.w3.org/2000/svg" style="" points="246.564,133.902 222.953,110.291 179.105,154.139 135.259,110.291 111.648,133.902   155.496,177.75 111.648,221.596 135.259,245.207 179.105,201.361 222.953,245.207 246.564,221.596 202.716,177.75 " fill="#ffffff" data-original="#ffffff" class=""/>
<polygon xmlns="http://www.w3.org/2000/svg" style="" points="246.564,133.902 222.953,110.291 179.105,154.139 179.105,201.361 222.953,245.207   246.564,221.596 202.716,177.75 " fill="#e0e0e2" data-original="#e0e0e2" class=""/>
<path xmlns="http://www.w3.org/2000/svg" style="" d="M179.105,401.033c-36.824,0-66.783-29.959-66.783-66.783s29.959-66.783,66.783-66.783  s66.783,29.959,66.783,66.783S215.929,401.033,179.105,401.033z M179.105,300.859c-18.412,0-33.391,14.979-33.391,33.391  c0,18.412,14.979,33.391,33.391,33.391s33.391-14.979,33.391-33.391C212.497,315.838,197.517,300.859,179.105,300.859z" fill="#ffffff" data-original="#ffffff" class=""/>
<path xmlns="http://www.w3.org/2000/svg" style="" d="M179.105,267.468v33.391c18.412,0,33.391,14.979,33.391,33.391s-14.979,33.391-33.391,33.391v33.391  c36.824,0,66.783-29.959,66.783-66.783S215.929,267.468,179.105,267.468z" fill="#e0e0e2" data-original="#e0e0e2" class=""/>
<polygon xmlns="http://www.w3.org/2000/svg" style="" points="400.352,290.404 376.741,266.793 332.895,310.639 289.047,266.793 265.436,290.404   309.284,334.25 265.436,378.098 289.047,401.708 332.895,357.861 376.741,401.708 400.352,378.098 356.504,334.25 " fill="#ffffff" data-original="#ffffff" class=""/>
<polygon xmlns="http://www.w3.org/2000/svg" style="" points="400.352,290.404 376.741,266.793 332.895,310.639 332.895,357.861 376.741,401.708   400.352,378.098 356.504,334.25 " fill="#e0e0e2" data-original="#e0e0e2" class=""/>
<g xmlns="http://www.w3.org/2000/svg">
</g>
<g xmlns="http://www.w3.org/2000/svg">
</g>
<g xmlns="http://www.w3.org/2000/svg">
</g>
<g xmlns="http://www.w3.org/2000/svg">
</g>
<g xmlns="http://www.w3.org/2000/svg">
</g>
<g xmlns="http://www.w3.org/2000/svg">
</g>
<g xmlns="http://www.w3.org/2000/svg">
</g>
<g xmlns="http://www.w3.org/2000/svg">
</g>
<g xmlns="http://www.w3.org/2000/svg">
</g>
<g xmlns="http://www.w3.org/2000/svg">
</g>
<g xmlns="http://www.w3.org/2000/svg">
</g>
<g xmlns="http://www.w3.org/2000/svg">
</g>
<g xmlns="http://www.w3.org/2000/svg">
</g>
<g xmlns="http://www.w3.org/2000/svg">
</g>
<g xmlns="http://www.w3.org/2000/svg">
</g>
<script/></g></svg>
